<svg width="128" height="128" viewBox="0 0 128 128" fill="none" xmlns="http://www.w3.org/2000/svg">
<path d="M78.7 52.85L60.22 36.83L67.08 31.73C67.08 31.73 86.99 20.58 105.98 34.02C124.64 47.22 122.88 86.47 108.44 104.42C94 122.37 83.97 123.43 78.52 123.25C73.06 123.07 72.18 120.43 66.9 120.96C61.62 121.49 59.86 124.48 50.18 123.78C41.4 123.14 34.16 119.73 30.64 115.86C27.31 112.18 78.7 52.85 78.7 52.85Z" fill="#6EA517"/>
<path d="M100.21 34.3999C100.21 34.3999 92.28 37.8199 84.36 38.4399C76.43 39.0599 62.29 37.9699 62.29 37.9699C62.29 37.9699 60.74 29.7299 60.27 29.7299C59.8 29.7299 38.99 22.4899 23.75 33.9299C7.68999 45.9799 6.10999 69.3799 8.66999 80.5499C14.56 106.22 33.45 118.31 33.45 118.31C33.45 118.31 50.32 120.18 71.46 110.86C92.6 101.54 110.9 85.2199 110.47 63.3099C110 39.9899 100.21 34.3999 100.21 34.3999Z" fill="#87C244"/>
<path d="M37.7002 38.9C34.9902 35.77 27.5502 36.47 21.7702 44.74C15.7502 53.34 15.4802 69.1 20.4402 69.53C24.5102 69.88 25.5502 62.99 28.0502 58.11C32.7502 48.95 43.9002 46.07 37.7002 38.9Z" fill="#E5DD9F"/>
<path d="M44.25 35.3601C43.06 37.8401 46.98 43.9401 61.62 44.3901C77.02 44.8601 82.07 36.2801 80.31 34.2801C78.55 32.2801 72.79 35.5701 61.86 35.4601C50.93 35.3501 46.28 31.1501 44.25 35.3601Z" fill="#59702C"/>
<path d="M51.8598 18.6399C50.6798 18.3999 45.8698 17.5799 45.3898 15.6999C45.1698 14.8099 46.3298 11.9399 49.3898 9.81992C52.4498 7.69992 55.4998 7.11993 56.2098 8.75993C56.9198 10.4099 56.6798 11.4599 56.6798 11.8199C56.6798 12.1699 59.0998 14.9999 60.7898 18.6399C63.1398 23.6899 64.4298 28.6299 64.1998 33.6899C64.0298 37.3499 63.9598 42.5099 61.8498 42.1499C59.6498 41.7799 60.1098 36.6199 59.0298 32.9799C56.4498 24.2899 52.5698 18.7899 51.8598 18.6399Z" fill="#513532"/>
<path d="M82.5899 24.3599C82.8299 24.0099 107.16 8.72991 107.27 7.78991C107.38 6.84991 94.6999 4.60991 86.7099 7.54991C78.7199 10.4899 70.4399 15.2199 66.4899 23.4199C63.3199 29.9999 63.3199 34.4699 64.1399 35.5299C64.5299 36.0299 82.5899 24.3599 82.5899 24.3599Z" fill="#2F7C31"/>
<path d="M79.8901 23.42C90.6301 16.56 107.28 7.79004 107.28 7.79004C107.28 7.79004 107.78 9.10004 104.58 14.61C100.35 21.9 90.4701 31.3 80.4801 34.24C69.6401 37.43 64.1401 35.53 64.1401 35.53C64.1401 35.53 71.4301 28.83 79.8901 23.42Z" fill="#4C8C19"/>
</svg>
