<svg width="128" height="128" viewBox="0 0 128 128" fill="none" xmlns="http://www.w3.org/2000/svg">
<path d="M45.7369 64.749L40.2869 51.239L40.4369 29.369C40.4369 29.369 55.1169 27.169 62.8269 26.109C70.5369 25.049 85.8669 18.589 99.8469 24.779C115.727 31.809 124.147 48.079 119.907 72.879C115.667 97.679 97.0769 117.749 80.3369 119.909C72.0469 120.979 70.5669 117.759 64.2169 118.219C59.0769 118.589 59.3569 121.259 50.5869 120.809C41.8169 120.359 34.3769 117.099 29.9969 111.659C25.6169 106.219 45.7369 64.749 45.7369 64.749Z" fill="#EBE210"/>
<path d="M21.5358 33.5994C8.96579 44.0994 3.0358 66.2294 13.0658 89.8494C21.9858 110.869 36.2358 116.879 36.2358 116.879C36.2358 116.879 61.1558 115.249 78.5458 105.869C95.9358 96.4894 112.726 80.1594 112.726 58.6894C112.726 37.2194 101.536 29.9594 100.326 29.6594C99.1158 29.3594 94.1258 32.5294 88.5258 32.6794C82.9258 32.8294 78.5458 31.4694 78.5458 31.4694L60.8558 37.3694L44.3158 33.5094C44.3158 33.5094 43.7858 31.1994 45.5758 30.2594C49.2958 28.3194 57.0658 31.6194 60.2458 31.4694C63.4258 31.3194 66.1458 27.0794 66.1458 27.0794C66.1458 27.0794 58.7358 26.3194 56.1658 25.7194C53.5958 25.1394 36.2058 21.3494 21.5358 33.5994Z" fill="#FFF500"/>
<path d="M62.3365 33.7291C57.7565 33.9391 45.4765 29.6291 44.3665 32.9991C43.1865 36.5791 52.3265 41.3291 63.4565 40.5491C75.0665 39.7391 82.2965 33.3191 80.4565 29.8591C78.6265 26.3991 71.0965 33.3191 62.3365 33.7291Z" fill="#8D1D0A"/>
<path d="M51.3459 13.5695C51.3459 13.5695 49.4159 13.4695 48.3959 13.0595C47.3759 12.6495 45.9359 12.6795 46.0559 10.9195C46.2559 7.96948 50.0359 4.93948 50.9459 4.39948C52.6759 3.37948 55.7059 3.65948 56.8559 4.39948C58.2859 5.31948 57.5659 8.67948 57.5659 8.67948C57.5659 8.67948 62.6559 16.3195 63.3659 20.9995C64.0159 25.2695 66.6759 37.7295 62.6559 38.5095C58.9859 39.2195 60.5159 29.6495 58.4859 24.9695C57.2659 22.1695 55.5359 19.1695 53.9059 17.1295C52.9828 15.9945 52.128 14.8058 51.3459 13.5695Z" fill="#513630"/>
<path d="M105.716 1.65953C106.126 0.949532 105.306 0.229532 101.946 0.129532C98.5858 0.0295315 80.2558 -1.70047 69.8758 11.2295C62.4158 20.5195 63.5658 28.4395 63.5658 28.4395L70.3858 28.7495L105.716 1.65953Z" fill="#2F7C31"/>
<path d="M83.2059 14.3798C89.3759 10.1198 105.806 0.839844 105.806 0.839844C105.806 0.839844 105.806 3.17984 104.786 5.21984C103.766 7.25984 100.306 17.3398 86.2559 24.6698C73.0659 31.5498 64.2659 29.8598 63.5459 28.6398C62.8459 27.4198 73.0259 21.4098 83.2059 14.3798Z" fill="#709F19"/>
<path d="M37.9059 36.5794C35.1759 32.6494 28.5659 33.7594 22.6359 41.6694C14.9959 51.8494 15.4059 65.3894 20.5959 66.2094C25.7459 67.0194 21.2059 61.8294 29.1459 51.5494C35.2259 43.6794 41.3659 41.5694 37.9059 36.5794Z" fill="#FFF7F1"/>
</svg>
