<svg width="20" height="19" viewBox="0 0 20 19" fill="none" xmlns="http://www.w3.org/2000/svg">
<path d="M7.28936 9.61129L6.48037 7.6059L6.50264 4.35957C6.50264 4.35957 8.6817 4.03301 9.82615 3.87566C10.9706 3.71832 13.2462 2.75941 15.3213 3.67824C17.6785 4.72176 18.9283 7.13683 18.299 10.8181C17.6696 14.4993 14.9101 17.4785 12.4253 17.7991C11.1947 17.9579 10.9751 17.48 10.0325 17.5482C9.26951 17.6032 9.31108 17.9995 8.00928 17.9327C6.70748 17.8659 5.60311 17.382 4.95295 16.5745C4.30279 15.767 7.28936 9.61129 7.28936 9.61129Z" fill="#DC0D28"/>
<path d="M3.69672 4.98741C1.83086 6.546 0.950626 9.83092 2.43945 13.337C3.76352 16.4572 5.87875 17.3493 5.87875 17.3493C5.87875 17.3493 9.57781 17.1073 12.1591 15.715C14.7405 14.3226 17.2327 11.8987 17.2327 8.71171C17.2327 5.52475 15.5717 4.4471 15.3921 4.40256C15.2125 4.35803 14.4718 4.82858 13.6405 4.85085C12.8093 4.87311 12.1591 4.67124 12.1591 4.67124L9.53328 5.54702L7.07813 4.97405C7.07813 4.97405 6.99945 4.63116 7.26516 4.49163C7.81734 4.20366 8.9707 4.6935 9.44273 4.67124C9.91477 4.64897 10.3185 4.0196 10.3185 4.0196C10.3185 4.0196 9.21859 3.90678 8.83711 3.81772C8.45563 3.73163 5.8743 3.16905 3.69672 4.98741Z" fill="#FF5117"/>
<path d="M9.75299 5.00684C9.07315 5.03801 7.25034 4.39825 7.08557 4.89848C6.91042 5.42989 8.26714 6.13496 9.91924 6.01918C11.6426 5.89895 12.7158 4.94598 12.4427 4.43239C12.171 3.91879 11.0533 4.94598 9.75299 5.00684Z" fill="#8D1D0A"/>
<path d="M8.12124 2.01444C8.12124 2.01444 7.83476 1.9996 7.68335 1.93874C7.53194 1.87788 7.31819 1.88233 7.33601 1.62108C7.36569 1.18319 7.92679 0.733425 8.06187 0.653269C8.31866 0.501862 8.76843 0.543425 8.93913 0.653269C9.1514 0.789831 9.04452 1.28858 9.04452 1.28858C9.04452 1.28858 9.80007 2.42264 9.90546 3.11733C10.0019 3.75116 10.3968 5.60069 9.80007 5.71647C9.2553 5.82186 9.48241 4.40132 9.18108 3.70663C8.99999 3.291 8.74319 2.84569 8.50124 2.54288C8.36423 2.37441 8.23734 2.19795 8.12124 2.01444Z" fill="#513630"/>
<path d="M16.1919 0.246337C16.2528 0.140946 16.131 0.0340711 15.6323 0.0192273C15.1335 0.00438358 12.4127 -0.252413 10.8719 1.66688C9.76456 3.04587 9.93526 4.22149 9.93526 4.22149L10.9476 4.26751L16.1919 0.246337Z" fill="#2F7C31"/>
<path d="M6.12632 5.42961C5.72109 4.84625 4.73992 5.01102 3.85968 6.18516C2.72562 7.69625 2.78648 9.7061 3.55687 9.82781C4.32133 9.94805 3.64742 9.17766 4.82601 7.65172C5.72851 6.48352 6.63992 6.17032 6.12632 5.42961Z" fill="#FFD2B1"/>
<path d="M12.9233 2.00984C13.8392 1.3775 16.278 0 16.278 0C16.278 0 16.278 0.347344 16.1266 0.650156C15.9752 0.952969 15.4616 2.44922 13.3761 3.53727C11.4182 4.55852 10.1119 4.30766 10.0051 4.12656C9.90116 3.94547 11.4123 3.05336 12.9233 2.00984Z" fill="#709F19"/>
</svg>
