<svg width="20" height="12" viewBox="0 0 20 12" fill="none" xmlns="http://www.w3.org/2000/svg">
<path d="M0.467047 0.5056C0.734914 0.236265 1.09817 0.0849609 1.47693 0.0849609C1.8557 0.0849609 2.21895 0.236265 2.48682 0.5056L9.55745 7.61714L16.6281 0.5056C16.8975 0.243898 17.2583 0.0990888 17.6328 0.102362C18.0074 0.105635 18.3656 0.256729 18.6305 0.5231C18.8953 0.789471 19.0455 1.14981 19.0488 1.5265C19.052 1.90319 18.9081 2.2661 18.6479 2.53706L10.5673 10.6643C10.2995 10.9337 9.93622 11.085 9.55745 11.085C9.17869 11.085 8.81543 10.9337 8.54757 10.6643L0.467047 2.53706C0.199262 2.26764 0.0488281 1.90228 0.0488281 1.52133C0.0488281 1.14037 0.199262 0.775016 0.467047 0.5056Z" fill="#616060"/>
</svg>
