<svg width="26" height="27" viewBox="0 0 26 27" fill="none" xmlns="http://www.w3.org/2000/svg">
<circle cx="13" cy="13.666" r="13" fill="#B9B7B7"/>
<path fill-rule="evenodd" clip-rule="evenodd" d="M8 7.66602C8 7.4008 8.11589 7.14645 8.32217 6.95891C8.52846 6.77137 8.80824 6.66602 9.09997 6.66602H14.5998C15.4936 6.66597 16.3661 6.91335 17.1014 7.37525C17.8367 7.83715 18.3998 8.49166 18.7158 9.25169C19.0318 10.0117 19.0857 10.8412 18.8704 11.6298C18.655 12.4183 18.1807 13.1286 17.5104 13.666C18.1807 14.2034 18.655 14.9137 18.8704 15.7023C19.0857 16.4908 19.0318 17.3203 18.7158 18.0803C18.3998 18.8404 17.8367 19.4949 17.1014 19.9568C16.3661 20.4187 15.4936 20.6661 14.5998 20.666H9.09997C8.80824 20.666 8.52846 20.5607 8.32217 20.3731C8.11589 20.1856 8 19.9312 8 19.666V7.66602ZM14.5998 12.666C15.1833 12.666 15.7429 12.4553 16.1554 12.0802C16.568 11.7052 16.7998 11.1964 16.7998 10.666C16.7998 10.1356 16.568 9.62687 16.1554 9.2518C15.7429 8.87673 15.1833 8.66602 14.5998 8.66602H10.1999V12.666H14.5998ZM10.1999 14.666H14.5998C15.1833 14.666 15.7429 14.8767 16.1554 15.2518C16.568 15.6269 16.7998 16.1356 16.7998 16.666C16.7998 17.1964 16.568 17.7052 16.1554 18.0802C15.7429 18.4553 15.1833 18.666 14.5998 18.666H10.1999V14.666Z" fill="white"/>
</svg>
