<svg width="64" height="64" viewBox="0 0 64 64" fill="none" xmlns="http://www.w3.org/2000/svg">
<circle cx="32" cy="32" r="32" fill="#FEE500"/>
<path d="M32.0922 15.4441C22.1363 15.4441 14.1074 21.8672 14.1074 29.6649C14.1074 34.7263 17.4475 39.1582 22.4575 41.689L20.7618 48.0222C20.7298 48.1172 20.7249 48.219 20.7476 48.3166C20.7703 48.4141 20.8197 48.5035 20.8903 48.5745C20.9932 48.6653 21.1256 48.7155 21.2628 48.7158C21.3766 48.7067 21.4845 48.6618 21.5711 48.5874L28.8678 43.6673C29.9449 43.816 31.0306 43.8932 32.1179 43.8985C42.0609 43.8985 50.1027 37.4754 50.1027 29.6649C50.1027 21.8543 42.0352 15.4441 32.0922 15.4441Z" fill="#392020"/>
<path d="M20.4025 27.4168H18.437C18.1934 27.4238 17.9528 27.3614 17.7433 27.2369C17.6503 27.1786 17.5703 27.1017 17.5084 27.0111C17.4465 26.9204 17.404 26.818 17.3836 26.7102C17.3773 26.6418 17.3773 26.5731 17.3836 26.5047C17.3775 26.3768 17.4023 26.2492 17.456 26.1329C17.5097 26.0166 17.5906 25.915 17.6919 25.8367C17.9159 25.6745 18.1862 25.5888 18.4627 25.5925H24.3848C24.6304 25.5839 24.8726 25.6512 25.0785 25.7853C25.1737 25.841 25.2554 25.9172 25.3176 26.0083C25.3798 26.0993 25.421 26.2031 25.4382 26.312C25.4445 26.3761 25.4445 26.4406 25.4382 26.5047C25.4443 26.6345 25.4195 26.7638 25.3659 26.8822C25.3123 27.0005 25.2314 27.1044 25.1299 27.1855C24.9114 27.3475 24.6437 27.4292 24.372 27.4168H22.4707V34.1739C22.4784 34.3179 22.4562 34.4618 22.4053 34.5967C22.3544 34.7316 22.2761 34.8545 22.1752 34.9575C22.0785 35.056 21.9623 35.1332 21.834 35.1841C21.7057 35.235 21.5681 35.2584 21.4302 35.253C21.1889 35.2598 20.9528 35.1827 20.7622 35.0347C20.5807 34.89 20.4575 34.6847 20.4153 34.4565C20.4026 34.3627 20.4026 34.2677 20.4153 34.1739L20.4025 27.4168Z" fill="#FEE500"/>
<path d="M26.0043 26.0935C26.0608 25.8821 26.1935 25.6991 26.3769 25.5797C26.5722 25.4689 26.7948 25.4155 27.0192 25.4255H27.5073C27.7454 25.417 27.9811 25.4748 28.1882 25.5925C28.4076 25.7401 28.5635 25.9648 28.625 26.222L31.1942 33.4801C31.2608 33.6695 31.3166 33.8626 31.3612 34.0583C31.3656 34.1396 31.3656 34.221 31.3612 34.3023C31.3656 34.4275 31.3425 34.5522 31.2937 34.6676C31.2449 34.7829 31.1715 34.8863 31.0786 34.9704C30.9886 35.0626 30.8805 35.1353 30.7612 35.1839C30.6418 35.2326 30.5137 35.256 30.3849 35.2529C30.1868 35.2726 29.9878 35.2251 29.82 35.1179C29.6522 35.0107 29.5254 34.8501 29.46 34.6621L28.9204 33.082H25.5418L25.0023 34.6621C24.9385 34.8538 24.8101 35.0175 24.6391 35.1253C24.4681 35.233 24.2651 35.2781 24.0645 35.2529C23.8473 35.2586 23.6345 35.1907 23.4607 35.0602C23.2914 34.9256 23.1772 34.7338 23.1396 34.5208C23.1328 34.4481 23.1328 34.375 23.1396 34.3023C23.1175 34.1748 23.1175 34.0446 23.1396 33.917C23.1396 33.7757 23.2295 33.6215 23.2809 33.4801L26.0043 26.0935ZM27.2889 27.7765L26.0685 31.6304H28.4965L27.2889 27.7765Z" fill="#FEE500"/>
<path d="M31.6554 26.5048C31.6424 26.2165 31.744 25.9348 31.938 25.7212C32.0367 25.6217 32.1551 25.544 32.2857 25.4931C32.4162 25.4422 32.556 25.4191 32.696 25.4256C32.9366 25.4228 33.1714 25.4997 33.364 25.6441C33.5424 25.7948 33.6609 26.0044 33.698 26.235C33.7106 26.3244 33.7106 26.4154 33.698 26.5048V33.262H37.2307C37.4756 33.2588 37.7163 33.3255 37.9244 33.4546C38.0179 33.5122 38.0983 33.589 38.1603 33.6797C38.2222 33.7705 38.2644 33.8732 38.2841 33.9813C38.2841 33.9813 38.2841 34.1098 38.2841 34.174C38.2902 34.302 38.2654 34.4294 38.2117 34.5457C38.158 34.662 38.0771 34.7637 37.9758 34.8421C37.7518 35.0043 37.4815 35.0898 37.205 35.0861H32.863C32.5864 35.1039 32.3115 35.0319 32.0793 34.8806C31.8716 34.7253 31.7332 34.4947 31.694 34.2383C31.6845 34.0972 31.6845 33.9554 31.694 33.8143L31.6554 26.5048Z" fill="#FEE500"/>
<path d="M38.5163 26.5049C38.5086 26.2174 38.6095 25.9377 38.7989 25.7213C38.9914 25.5463 39.2384 25.443 39.4982 25.429C39.7579 25.4149 40.0146 25.491 40.2248 25.6441C40.4072 25.7935 40.5302 26.003 40.5717 26.235C40.578 26.3248 40.578 26.4151 40.5717 26.5049V29.6522L43.8218 25.901C43.947 25.773 44.08 25.653 44.22 25.5414C44.352 25.4629 44.5033 25.4227 44.6568 25.4257C44.8813 25.4245 45.1009 25.4917 45.2863 25.6184C45.3736 25.6772 45.4482 25.7531 45.5056 25.8414C45.563 25.9297 45.602 26.0286 45.6203 26.1323C45.6255 26.1577 45.6255 26.184 45.6203 26.2095C45.614 26.2391 45.614 26.2697 45.6203 26.2993C45.6198 26.4345 45.5844 26.5673 45.5175 26.6848C45.4493 26.8091 45.3675 26.9253 45.2734 27.0315L43.1409 29.3696L45.7102 33.3519V33.4803C45.8436 33.6644 45.9476 33.8682 46.0185 34.0842V34.1484C46.0334 34.2972 46.0119 34.4475 45.956 34.5862C45.9 34.7249 45.8113 34.8479 45.6974 34.9448C45.4831 35.1068 45.2209 35.1928 44.9523 35.189C44.7738 35.1963 44.5965 35.1564 44.4384 35.0733C44.2673 34.9585 44.1263 34.8043 44.0273 34.6237L41.6379 30.7698L40.4946 31.9646V34.1098C40.5023 34.3972 40.4014 34.677 40.212 34.8934C40.1105 34.9926 39.9897 35.0701 39.8572 35.1209C39.7246 35.1718 39.5831 35.1949 39.4412 35.189C39.2042 35.194 38.9727 35.1167 38.7861 34.9706C38.6046 34.8259 38.4814 34.6207 38.4392 34.3925C38.4265 34.2988 38.4265 34.2036 38.4392 34.1098L38.5163 26.5049Z" fill="#FEE500"/>
</svg>
