<svg width="64" height="62" viewBox="0 0 64 62" fill="none" xmlns="http://www.w3.org/2000/svg">
<path d="M61.8411 59.5537C60.0763 54.3265 56.1874 49.7075 50.7776 46.4131C45.3678 43.1187 38.7395 41.333 31.9206 41.333C25.1017 41.333 18.4733 43.1187 13.0636 46.4131C7.65376 49.7075 3.76486 54.3265 2 59.5537" stroke="#499268" stroke-width="3" stroke-linecap="round"/>
<path d="M61.8411 59.5537C60.0763 54.3265 56.1874 49.7075 50.7776 46.4131C45.3678 43.1187 38.7395 41.333 31.9206 41.333C25.1017 41.333 18.4733 43.1187 13.0636 46.4131C7.65376 49.7075 3.76486 54.3265 2 59.5537" stroke="black" stroke-opacity="0.2" stroke-width="3" stroke-linecap="round"/>
<ellipse cx="31.9202" cy="16.75" rx="14.9603" ry="14.75" stroke="#499268" stroke-width="3" stroke-linecap="round"/>
<ellipse cx="31.9202" cy="16.75" rx="14.9603" ry="14.75" stroke="black" stroke-opacity="0.2" stroke-width="3" stroke-linecap="round"/>
</svg>
