<svg width="25" height="26" viewBox="0 0 25 26" fill="none" xmlns="http://www.w3.org/2000/svg">
<path fill-rule="evenodd" clip-rule="evenodd" d="M9.72222 17.1667C13.5575 17.1667 16.6667 14.0575 16.6667 10.2222C16.6667 6.38691 13.5575 3.27778 9.72222 3.27778C5.88691 3.27778 2.77778 6.38691 2.77778 10.2222C2.77778 14.0575 5.88691 17.1667 9.72222 17.1667ZM9.72222 19.9444C15.0917 19.9444 19.4444 15.5917 19.4444 10.2222C19.4444 4.85279 15.0917 0.5 9.72222 0.5C4.35279 0.5 0 4.85279 0 10.2222C0 15.5917 4.35279 19.9444 9.72222 19.9444Z" fill="#333232"/>
<path fill-rule="evenodd" clip-rule="evenodd" d="M14.9903 15.4898C15.5327 14.9474 16.4121 14.9474 16.9545 15.4898L24.5934 23.1287C25.1358 23.6711 25.1358 24.5505 24.5934 25.0929C24.051 25.6353 23.1716 25.6353 22.6292 25.0929L14.9903 17.454C14.4479 16.9116 14.4479 16.0322 14.9903 15.4898Z" fill="#333232"/>
</svg>
