<svg width="16" height="16" viewBox="0 0 16 16" fill="none" xmlns="http://www.w3.org/2000/svg">
<path d="M11.875 14H2.125C1.5025 14 1 13.5087 1 12.9V4.1C1 3.49133 1.5025 3 2.125 3H11.875C12.4975 3 13 3.49133 13 4.1V12.9C13 13.5087 12.4975 14 11.875 14ZM2.125 3.73333C1.915 3.73333 1.75 3.89467 1.75 4.1V12.9C1.75 13.1053 1.915 13.2667 2.125 13.2667H11.875C12.085 13.2667 12.25 13.1053 12.25 12.9V4.1C12.25 3.89467 12.085 3.73333 11.875 3.73333H2.125Z" fill="#615E5E"/>
<path d="M4.375 4.66667C4.165 4.66667 4 4.52 4 4.33333V2.33333C4 2.14667 4.165 2 4.375 2C4.585 2 4.75 2.14667 4.75 2.33333V4.33333C4.75 4.52 4.585 4.66667 4.375 4.66667ZM9.625 4.66667C9.415 4.66667 9.25 4.52 9.25 4.33333V2.33333C9.25 2.14667 9.415 2 9.625 2C9.835 2 10 2.14667 10 2.33333V4.33333C10 4.52 9.835 4.66667 9.625 4.66667ZM12.625 6H1.375C1.165 6 1 5.85333 1 5.66667C1 5.48 1.165 5.33333 1.375 5.33333H12.625C12.835 5.33333 13 5.48 13 5.66667C13 5.85333 12.835 6 12.625 6Z" fill="#615E5E"/>
</svg>
