<svg width="25" height="22" viewBox="0 0 25 22" fill="none" xmlns="http://www.w3.org/2000/svg">
<path d="M12.6842 21.4513L12.6812 21.4529C12.6247 21.4841 12.5625 21.5 12.5 21.5C12.4375 21.5 12.3753 21.4841 12.3188 21.4529L12.3158 21.4513C12.0864 21.3266 9.10473 19.6576 6.18786 17.0344C3.24696 14.3896 0.500134 10.8889 0.5 7.10612C0.501997 5.35048 1.18215 3.66992 2.38722 2.43243C3.59184 1.19539 5.22222 0.502042 6.91994 0.5C9.07303 0.500087 10.9374 1.44806 12.0964 3.03315L12.5 3.58518L12.9036 3.03315C14.0626 1.44806 15.927 0.500086 18.0801 0.5C19.7778 0.502042 21.4082 1.19539 22.6128 2.43243C23.8179 3.66998 24.4981 5.35066 24.5 7.10639C24.4997 10.8891 21.753 14.3896 18.8121 17.0344C15.8953 19.6576 12.9136 21.3266 12.6842 21.4513Z" fill="#D9D9D9" stroke="#616060"/>
</svg>
