<svg width="58" height="61" viewBox="0 0 58 61" fill="none" xmlns="http://www.w3.org/2000/svg">
<rect x="1" y="0.5" width="56" height="60" stroke="#B9B7B7"/>
<path d="M21.4507 33.4082L28.4033 39.9395C28.6428 40.1644 28.7625 40.2769 28.9037 40.3046C28.9673 40.3171 29.0327 40.3171 29.0963 40.3046C29.2375 40.2769 29.3572 40.1644 29.5967 39.9395L36.5493 33.4082C38.5055 31.5706 38.743 28.5466 37.0978 26.4261L36.7885 26.0273C34.8203 23.4906 30.8696 23.916 29.4867 26.8137C29.2913 27.223 28.7087 27.223 28.5133 26.8137C27.1304 23.916 23.1797 23.4906 21.2115 26.0273L20.9022 26.4261C19.2569 28.5466 19.4945 31.5706 21.4507 33.4082Z" fill="#499268"/>
<path d="M21.4507 33.4082L28.4033 39.9395C28.6428 40.1644 28.7625 40.2769 28.9037 40.3046C28.9673 40.3171 29.0327 40.3171 29.0963 40.3046C29.2375 40.2769 29.3572 40.1644 29.5967 39.9395L36.5493 33.4082C38.5055 31.5706 38.743 28.5466 37.0978 26.4261L36.7885 26.0273C34.8203 23.4906 30.8696 23.916 29.4867 26.8137C29.2913 27.223 28.7087 27.223 28.5133 26.8137C27.1304 23.916 23.1797 23.4906 21.2115 26.0273L20.9022 26.4261C19.2569 28.5466 19.4945 31.5706 21.4507 33.4082Z" fill="black" fill-opacity="0.2"/>
<path d="M21.4507 33.4082L28.4033 39.9395C28.6428 40.1644 28.7625 40.2769 28.9037 40.3046C28.9673 40.3171 29.0327 40.3171 29.0963 40.3046C29.2375 40.2769 29.3572 40.1644 29.5967 39.9395L36.5493 33.4082C38.5055 31.5706 38.743 28.5466 37.0978 26.4261L36.7885 26.0273C34.8203 23.4906 30.8696 23.916 29.4867 26.8137C29.2913 27.223 28.7087 27.223 28.5133 26.8137C27.1304 23.916 23.1797 23.4906 21.2115 26.0273L20.9022 26.4261C19.2569 28.5466 19.4945 31.5706 21.4507 33.4082Z" stroke="#499268" stroke-width="2"/>
<path d="M21.4507 33.4082L28.4033 39.9395C28.6428 40.1644 28.7625 40.2769 28.9037 40.3046C28.9673 40.3171 29.0327 40.3171 29.0963 40.3046C29.2375 40.2769 29.3572 40.1644 29.5967 39.9395L36.5493 33.4082C38.5055 31.5706 38.743 28.5466 37.0978 26.4261L36.7885 26.0273C34.8203 23.4906 30.8696 23.916 29.4867 26.8137C29.2913 27.223 28.7087 27.223 28.5133 26.8137C27.1304 23.916 23.1797 23.4906 21.2115 26.0273L20.9022 26.4261C19.2569 28.5466 19.4945 31.5706 21.4507 33.4082Z" stroke="black" stroke-opacity="0.2" stroke-width="2"/>
</svg>
