<svg width="15" height="13" viewBox="0 0 15 13" fill="none" xmlns="http://www.w3.org/2000/svg">
<path d="M15 4.19891C15 8.93961 8.04978 12.7769 7.75379 12.9353C7.67578 12.9778 7.58858 13 7.5 13C7.41142 13 7.32422 12.9778 7.24621 12.9353C6.95022 12.7769 0 8.93961 0 4.19891C0.00124067 3.08567 0.439058 2.01839 1.2174 1.23122C1.99574 0.444041 3.05104 0.00125475 4.15179 0C5.5346 0 6.74531 0.601392 7.5 1.61793C8.25469 0.601392 9.4654 0 10.8482 0C11.949 0.00125475 13.0043 0.444041 13.7826 1.23122C14.5609 2.01839 14.9988 3.08567 15 4.19891Z" fill="#499268"/>
<path d="M15 4.19891C15 8.93961 8.04978 12.7769 7.75379 12.9353C7.67578 12.9778 7.58858 13 7.5 13C7.41142 13 7.32422 12.9778 7.24621 12.9353C6.95022 12.7769 0 8.93961 0 4.19891C0.00124067 3.08567 0.439058 2.01839 1.2174 1.23122C1.99574 0.444041 3.05104 0.00125475 4.15179 0C5.5346 0 6.74531 0.601392 7.5 1.61793C8.25469 0.601392 9.4654 0 10.8482 0C11.949 0.00125475 13.0043 0.444041 13.7826 1.23122C14.5609 2.01839 14.9988 3.08567 15 4.19891Z" fill="black" fill-opacity="0.2"/>
</svg>
