<svg width="26" height="27" viewBox="0 0 26 27" fill="none" xmlns="http://www.w3.org/2000/svg">
<circle cx="13" cy="13.666" r="13" fill="#B9B7B7"/>
<path d="M9.64 5.66602H16.36C18.92 5.66602 21 7.74602 21 10.306V17.026C21 18.2566 20.5111 19.4368 19.641 20.307C18.7708 21.1772 17.5906 21.666 16.36 21.666H9.64C7.08 21.666 5 19.586 5 17.026V10.306C5 9.07541 5.48886 7.89521 6.35902 7.02504C7.22919 6.15487 8.4094 5.66602 9.64 5.66602ZM9.48 7.26602C8.71618 7.26602 7.98364 7.56944 7.44353 8.10955C6.90343 8.64965 6.6 9.38219 6.6 10.146V17.186C6.6 18.778 7.888 20.066 9.48 20.066H16.52C17.2838 20.066 18.0164 19.7626 18.5565 19.2225C19.0966 18.6824 19.4 17.9498 19.4 17.186V10.146C19.4 8.55402 18.112 7.26602 16.52 7.26602H9.48ZM17.2 8.46602C17.4652 8.46602 17.7196 8.57137 17.9071 8.75891C18.0946 8.94645 18.2 9.2008 18.2 9.46602C18.2 9.73123 18.0946 9.98559 17.9071 10.1731C17.7196 10.3607 17.4652 10.466 17.2 10.466C16.9348 10.466 16.6804 10.3607 16.4929 10.1731C16.3054 9.98559 16.2 9.73123 16.2 9.46602C16.2 9.2008 16.3054 8.94645 16.4929 8.75891C16.6804 8.57137 16.9348 8.46602 17.2 8.46602ZM13 9.66602C14.0609 9.66602 15.0783 10.0874 15.8284 10.8376C16.5786 11.5877 17 12.6051 17 13.666C17 14.7269 16.5786 15.7443 15.8284 16.4944C15.0783 17.2446 14.0609 17.666 13 17.666C11.9391 17.666 10.9217 17.2446 10.1716 16.4944C9.42143 15.7443 9 14.7269 9 13.666C9 12.6051 9.42143 11.5877 10.1716 10.8376C10.9217 10.0874 11.9391 9.66602 13 9.66602ZM13 11.266C12.3635 11.266 11.753 11.5189 11.3029 11.969C10.8529 12.419 10.6 13.0295 10.6 13.666C10.6 14.3025 10.8529 14.913 11.3029 15.3631C11.753 15.8132 12.3635 16.066 13 16.066C13.6365 16.066 14.247 15.8132 14.6971 15.3631C15.1471 14.913 15.4 14.3025 15.4 13.666C15.4 13.0295 15.1471 12.419 14.6971 11.969C14.247 11.5189 13.6365 11.266 13 11.266Z" fill="white"/>
</svg>
