<svg width="57" height="40" viewBox="0 0 57 40" fill="none" xmlns="http://www.w3.org/2000/svg">
<path fill-rule="evenodd" clip-rule="evenodd" d="M42.961 0.320903C40.3211 -0.215117 37.1558 -0.16045 34.4602 1.10969C31.6919 2.41405 29.4941 4.9753 28.9283 9.18582C28.8331 9.89429 29.291 10.5515 29.9511 10.6536C30.6113 10.7558 31.2236 10.2643 31.3188 9.55586C31.7593 6.27794 33.3857 4.44694 35.4311 3.48317C37.5492 2.48518 40.1872 2.39583 42.512 2.86787C45.3808 3.45036 49.4307 3.8429 52.5109 4.06574C52.4192 4.1821 52.3285 4.29993 52.239 4.41845C51.2581 5.71828 50.3217 7.24908 49.7539 8.26833C45.8683 15.091 39.2047 14.7816 36.3423 13.7576C35.7095 13.5312 35.0256 13.8982 34.8147 14.5773C34.6038 15.2564 34.9458 15.9904 35.5785 16.2167C39.0218 17.4486 47.1155 17.8786 51.818 9.61431L51.824 9.60364C52.3523 8.65477 53.2257 7.22946 54.1159 6.04995C54.5632 5.45724 54.9875 4.96318 55.3524 4.62587C55.5345 4.45756 55.6771 4.35143 55.7786 4.29177C55.8132 4.27143 55.8369 4.26011 55.8504 4.25426C56.4738 4.20002 56.9591 3.64075 56.9597 2.96355C56.9602 2.26831 56.4495 1.69646 55.8023 1.66752C53.1244 1.54777 46.8399 1.10849 42.961 0.320903ZM45.1064 9.22662C45.7733 9.21373 46.3041 8.62309 46.2921 7.90741C46.2801 7.19172 45.7298 6.622 45.0629 6.63489L37.6159 6.7789C37.5507 6.78016 37.4858 6.78709 37.4216 6.7996C35.3163 7.21042 33.9324 8.18242 33.0105 9.32231C32.1655 10.3672 31.7618 11.4975 31.5194 12.1763L31.4793 12.2884L31.4732 12.3056C30.4894 15.1613 28.1487 21.9016 26.6499 26.0381C25.4128 29.452 22.2444 30.1907 20.7935 30.1098C20.7816 30.1091 20.7697 30.1087 20.7577 30.1084C20.7488 30.1082 20.7398 30.108 20.7309 30.108H6.7761C6.10915 30.108 5.56847 30.6883 5.56847 31.4041C5.56847 32.1199 6.10915 32.7002 6.7761 32.7002H20.7015C22.7107 32.7989 27.1421 31.8315 28.9009 26.9776C30.4062 22.8233 32.7498 16.0745 33.7356 13.213L33.7541 13.1615C34.0024 12.4706 34.2739 11.7146 34.8345 11.0215C35.3722 10.3566 36.2342 9.68615 37.7607 9.36868L45.1064 9.22662ZM0 15.9954C0 15.2796 0.540673 14.6993 1.20763 14.6993H23.012C23.6789 14.6993 24.2196 15.2796 24.2196 15.9954C24.2196 16.7112 23.6789 17.2915 23.012 17.2915H1.20763C0.540673 17.2915 0 16.7112 0 15.9954ZM2.28108 23.7712C2.28108 23.0554 2.82175 22.4751 3.48871 22.4751H20.6638C21.3308 22.4751 21.8715 23.0554 21.8715 23.7712C21.8715 24.487 21.3308 25.0672 20.6638 25.0672H3.48871C2.82175 25.0672 2.28108 24.487 2.28108 23.7712ZM22.1398 37.3081C22.1398 38.5011 21.2387 39.4683 20.1271 39.4683C19.0155 39.4683 18.1144 38.5011 18.1144 37.3081C18.1144 36.1151 19.0155 35.148 20.1271 35.148C21.2387 35.148 22.1398 36.1151 22.1398 37.3081ZM11.4054 39.4683C12.517 39.4683 13.4181 38.5011 13.4181 37.3081C13.4181 36.1151 12.517 35.148 11.4054 35.148C10.2938 35.148 9.39267 36.1151 9.39267 37.3081C9.39267 38.5011 10.2938 39.4683 11.4054 39.4683Z" fill="#499268"/>
<path fill-rule="evenodd" clip-rule="evenodd" d="M42.961 0.320903C40.3211 -0.215117 37.1558 -0.16045 34.4602 1.10969C31.6919 2.41405 29.4941 4.9753 28.9283 9.18582C28.8331 9.89429 29.291 10.5515 29.9511 10.6536C30.6113 10.7558 31.2236 10.2643 31.3188 9.55586C31.7593 6.27794 33.3857 4.44694 35.4311 3.48317C37.5492 2.48518 40.1872 2.39583 42.512 2.86787C45.3808 3.45036 49.4307 3.8429 52.5109 4.06574C52.4192 4.1821 52.3285 4.29993 52.239 4.41845C51.2581 5.71828 50.3217 7.24908 49.7539 8.26833C45.8683 15.091 39.2047 14.7816 36.3423 13.7576C35.7095 13.5312 35.0256 13.8982 34.8147 14.5773C34.6038 15.2564 34.9458 15.9904 35.5785 16.2167C39.0218 17.4486 47.1155 17.8786 51.818 9.61431L51.824 9.60364C52.3523 8.65477 53.2257 7.22946 54.1159 6.04995C54.5632 5.45724 54.9875 4.96318 55.3524 4.62587C55.5345 4.45756 55.6771 4.35143 55.7786 4.29177C55.8132 4.27143 55.8369 4.26011 55.8504 4.25426C56.4738 4.20002 56.9591 3.64075 56.9597 2.96355C56.9602 2.26831 56.4495 1.69646 55.8023 1.66752C53.1244 1.54777 46.8399 1.10849 42.961 0.320903ZM45.1064 9.22662C45.7733 9.21373 46.3041 8.62309 46.2921 7.90741C46.2801 7.19172 45.7298 6.622 45.0629 6.63489L37.6159 6.7789C37.5507 6.78016 37.4858 6.78709 37.4216 6.7996C35.3163 7.21042 33.9324 8.18242 33.0105 9.32231C32.1655 10.3672 31.7618 11.4975 31.5194 12.1763L31.4793 12.2884L31.4732 12.3056C30.4894 15.1613 28.1487 21.9016 26.6499 26.0381C25.4128 29.452 22.2444 30.1907 20.7935 30.1098C20.7816 30.1091 20.7697 30.1087 20.7577 30.1084C20.7488 30.1082 20.7398 30.108 20.7309 30.108H6.7761C6.10915 30.108 5.56847 30.6883 5.56847 31.4041C5.56847 32.1199 6.10915 32.7002 6.7761 32.7002H20.7015C22.7107 32.7989 27.1421 31.8315 28.9009 26.9776C30.4062 22.8233 32.7498 16.0745 33.7356 13.213L33.7541 13.1615C34.0024 12.4706 34.2739 11.7146 34.8345 11.0215C35.3722 10.3566 36.2342 9.68615 37.7607 9.36868L45.1064 9.22662ZM0 15.9954C0 15.2796 0.540673 14.6993 1.20763 14.6993H23.012C23.6789 14.6993 24.2196 15.2796 24.2196 15.9954C24.2196 16.7112 23.6789 17.2915 23.012 17.2915H1.20763C0.540673 17.2915 0 16.7112 0 15.9954ZM2.28108 23.7712C2.28108 23.0554 2.82175 22.4751 3.48871 22.4751H20.6638C21.3308 22.4751 21.8715 23.0554 21.8715 23.7712C21.8715 24.487 21.3308 25.0672 20.6638 25.0672H3.48871C2.82175 25.0672 2.28108 24.487 2.28108 23.7712ZM22.1398 37.3081C22.1398 38.5011 21.2387 39.4683 20.1271 39.4683C19.0155 39.4683 18.1144 38.5011 18.1144 37.3081C18.1144 36.1151 19.0155 35.148 20.1271 35.148C21.2387 35.148 22.1398 36.1151 22.1398 37.3081ZM11.4054 39.4683C12.517 39.4683 13.4181 38.5011 13.4181 37.3081C13.4181 36.1151 12.517 35.148 11.4054 35.148C10.2938 35.148 9.39267 36.1151 9.39267 37.3081C9.39267 38.5011 10.2938 39.4683 11.4054 39.4683Z" fill="black" fill-opacity="0.2"/>
</svg>
