<svg width="118" height="118" viewBox="0 0 118 118" fill="none" xmlns="http://www.w3.org/2000/svg">
<g filter="url(#filter0_d_804_3432)">
<circle cx="59" cy="49.1665" r="14.75" stroke="#499268" stroke-width="3" stroke-linecap="round"/>
<circle cx="59" cy="49.1665" r="14.75" stroke="black" stroke-opacity="0.2" stroke-width="3" stroke-linecap="round"/>
<circle cx="59" cy="59" r="44.25" stroke="#499268" stroke-width="3"/>
<circle cx="59" cy="59" r="44.25" stroke="black" stroke-opacity="0.2" stroke-width="3"/>
<path d="M88.5 91.9707C86.7599 86.7435 82.9257 82.1245 77.592 78.8301C72.2582 75.5357 65.723 73.75 59 73.75C52.277 73.75 45.7418 75.5357 40.408 78.8301C35.0743 82.1244 31.2401 86.7435 29.5 91.9707" stroke="#499268" stroke-width="3" stroke-linecap="round"/>
<path d="M88.5 91.9707C86.7599 86.7435 82.9257 82.1245 77.592 78.8301C72.2582 75.5357 65.723 73.75 59 73.75C52.277 73.75 45.7418 75.5357 40.408 78.8301C35.0743 82.1244 31.2401 86.7435 29.5 91.9707" stroke="black" stroke-opacity="0.2" stroke-width="3" stroke-linecap="round"/>
</g>
<defs>
<filter id="filter0_d_804_3432" x="-4" y="0" width="126" height="126" filterUnits="userSpaceOnUse" color-interpolation-filters="sRGB">
<feFlood flood-opacity="0" result="BackgroundImageFix"/>
<feColorMatrix in="SourceAlpha" type="matrix" values="0 0 0 0 0 0 0 0 0 0 0 0 0 0 0 0 0 0 127 0" result="hardAlpha"/>
<feOffset dy="4"/>
<feGaussianBlur stdDeviation="2"/>
<feComposite in2="hardAlpha" operator="out"/>
<feColorMatrix type="matrix" values="0 0 0 0 0 0 0 0 0 0 0 0 0 0 0 0 0 0 0.25 0"/>
<feBlend mode="normal" in2="BackgroundImageFix" result="effect1_dropShadow_804_3432"/>
<feBlend mode="normal" in="SourceGraphic" in2="effect1_dropShadow_804_3432" result="shape"/>
</filter>
</defs>
</svg>
